<svg width="367" height="270" viewBox="0 0 367 270" fill="none" xmlns="http://www.w3.org/2000/svg">
<path d="M79.5002 270H65.1874C43.3622 270 25.6578 252.258 25.6578 230.387V159.08C25.6578 154.356 21.8422 150.532 17.1278 150.532H15.4998C6.93592 150.515 0 143.565 0 135C0 126.418 6.93592 119.468 15.4998 119.468H17.1109C38.9361 119.468 56.6405 137.209 56.6405 159.08V230.387C56.6405 235.111 60.4561 238.935 65.1705 238.935H79.4832C88.0471 238.935 94.983 245.886 94.983 254.468C94.983 263.049 88.0471 270 79.5002 270Z" fill="#FF7B14"/>
<path opacity="0.3" d="M54.9107 147.474C49.9589 131.261 34.917 119.468 17.1109 119.468H15.4998C6.93592 119.468 0 126.418 0 135C0 143.582 6.93592 150.532 15.4998 150.532H17.1109C21.8252 150.532 25.6408 154.356 25.6408 159.08V162.904C37.0537 161.018 47.2287 155.461 54.9107 147.474Z" fill="#FF7B14"/>
<path d="M79.5002 0H65.1874C43.3452 0 25.6578 17.7417 25.6578 39.6129V110.92C25.6578 115.644 21.8422 119.468 17.1278 119.468H15.4998C6.93592 119.485 0 126.435 0 135C0 143.582 6.93592 150.532 15.4998 150.532H17.1109C38.9361 150.532 56.6405 132.791 56.6405 110.92V39.6129C56.6405 34.8886 60.4561 31.048 65.1874 31.048H79.5002C88.0641 31.048 95 24.0974 95 15.5155C94.983 6.95053 88.0471 0 79.5002 0Z" fill="#FF7B14"/>
<g clip-path="url(#clip0_1_1025)">
<path d="M143.159 78.944C148.843 72.7641 158.491 72.3128 164.728 77.9533C170.955 83.5937 171.41 93.1775 165.726 99.3575L121.679 147.326C115.995 153.515 106.338 153.957 100.11 148.316C93.8731 142.676 93.4282 133.092 99.1121 126.912L125.169 98.6021L143.159 78.944Z" fill="#333333"/>
<path d="M170.016 191.056C164.333 197.246 154.675 197.687 148.448 192.047L100.12 148.336C94.0213 142.813 93.2306 133.779 98.5387 127.589L98.7661 127.324L99.0626 127.01C99.0824 126.991 99.1022 126.961 99.1219 126.932C99.1417 126.903 99.1714 126.883 99.1911 126.863L125.169 98.6023C111.181 113.836 131.96 136.143 131.96 136.143L169.018 169.652C175.245 175.292 175.7 184.876 170.016 191.056Z" fill="#333333"/>
</g>
<g clip-path="url(#clip1_1_1025)">
<path d="M224.45 78.9438C218.838 72.7638 209.313 72.3126 203.155 77.953C197.006 83.5934 196.557 93.1773 202.169 99.3572L245.658 147.325C251.27 153.515 260.805 153.957 266.954 148.316C273.113 142.676 273.552 133.092 267.94 126.912L242.213 98.6019L224.45 78.9438Z" fill="#333333"/>
<path d="M197.933 191.056C203.545 197.246 213.08 197.687 219.229 192.047L266.944 148.336C272.966 142.813 273.747 133.779 268.506 127.589L268.281 127.324L267.989 127.01C267.969 126.991 267.95 126.961 267.93 126.932C267.91 126.902 267.881 126.883 267.862 126.863L242.213 98.6021C256.023 113.836 235.508 136.143 235.508 136.143L198.919 169.652C192.77 175.292 192.321 184.876 197.933 191.056Z" fill="#333333"/>
</g>
<path d="M287.5 270H301.813C323.638 270 341.342 252.258 341.342 230.387V159.08C341.342 154.356 345.158 150.532 349.872 150.532H351.483C360.047 150.532 366.983 143.582 366.983 135C366.983 126.418 360.047 119.468 351.483 119.468H349.872C328.047 119.468 310.343 137.209 310.343 159.08V230.387C310.343 235.111 306.527 238.935 301.813 238.935H287.5C278.936 238.935 272 245.886 272 254.468C272 263.049 278.936 270 287.5 270Z" fill="#FF7B14"/>
<path opacity="0.3" d="M351.5 150.515C360.064 150.515 367 143.565 367 134.983C367 126.401 360.064 119.45 351.5 119.45H349.889C332.083 119.45 317.041 131.244 312.089 147.456C319.788 155.444 329.946 161.001 341.342 162.87V159.046C341.342 154.322 345.158 150.498 349.889 150.498H351.5V150.515Z" fill="#FF7B14"/>
<path d="M287.5 0H301.812C323.638 0 341.342 17.7417 341.342 39.6129V110.92C341.342 115.644 345.158 119.485 349.889 119.485H351.5C360.064 119.485 367 126.435 367 135.017C367 143.599 360.064 150.549 351.5 150.549H349.889C328.064 150.549 310.359 132.808 310.359 110.937V39.6129C310.359 34.8886 306.544 31.065 301.829 31.065H287.517C278.953 31.065 272.017 24.1144 272.017 15.5325C272 6.95053 278.936 0 287.5 0Z" fill="#FF7B14"/>
<defs>
<clipPath id="clip0_1_1025">
<rect width="79" height="122" fill="white" transform="matrix(-1 0 0 1 174 74)"/>
</clipPath>
<clipPath id="clip1_1_1025">
<rect width="78" height="122" fill="white" transform="translate(194 74)"/>
</clipPath>
</defs>
</svg>
